mtllib modelo.mtl
o PAREDE-001
usemtl alvenaria_branca
v 0.0000 0.0000 0.0000
v 3.2000 0.0000 0.0000
v 3.2000 0.1200 0.0000
v 0.0000 0.1200 0.0000
v 0.0000 0.0000 2.7000
v 3.2000 0.0000 2.7000
v 3.2000 0.1200 2.7000
v 0.0000 0.1200 2.7000
f 1 2 3 4
f 5 8 7 6
f 1 5 6 2
f 2 6 7 3
f 3 7 8 4
f 4 8 5 1
o MOD-001-LAT-E
usemtl mdf_areia
v 0.3000 0.1200 0.0000
v 0.3180 0.1200 0.0000
v 0.3180 0.7200 0.0000
v 0.3000 0.7200 0.0000
v 0.3000 0.1200 0.7200
v 0.3180 0.1200 0.7200
v 0.3180 0.7200 0.7200
v 0.3000 0.7200 0.7200
f 9 10 11 12
f 13 16 15 14
f 9 13 14 10
f 10 14 15 11
f 11 15 16 12
f 12 16 13 9
o MOD-001-LAT-D
usemtl mdf_areia
v 0.8820 0.1200 0.0000
v 0.9000 0.1200 0.0000
v 0.9000 0.7200 0.0000
v 0.8820 0.7200 0.0000
v 0.8820 0.1200 0.7200
v 0.9000 0.1200 0.7200
v 0.9000 0.7200 0.7200
v 0.8820 0.7200 0.7200
f 17 18 19 20
f 21 24 23 22
f 17 21 22 18
f 18 22 23 19
f 19 23 24 20
f 20 24 21 17
o MOD-001-BASE
usemtl mdf_areia
v 0.3000 0.1200 0.0000
v 0.9000 0.1200 0.0000
v 0.9000 0.7200 0.0000
v 0.3000 0.7200 0.0000
v 0.3000 0.1200 0.0180
v 0.9000 0.1200 0.0180
v 0.9000 0.7200 0.0180
v 0.3000 0.7200 0.0180
f 25 26 27 28
f 29 32 31 30
f 25 29 30 26
f 26 30 31 27
f 27 31 32 28
f 28 32 29 25
o MOD-001-TOPO
usemtl mdf_areia
v 0.3000 0.1200 0.7020
v 0.9000 0.1200 0.7020
v 0.9000 0.7200 0.7020
v 0.3000 0.7200 0.7020
v 0.3000 0.1200 0.7200
v 0.9000 0.1200 0.7200
v 0.9000 0.7200 0.7200
v 0.3000 0.7200 0.7200
f 33 34 35 36
f 37 40 39 38
f 33 37 38 34
f 34 38 39 35
f 35 39 40 36
f 36 40 37 33
o MOD-001-FUNDO
usemtl mdf_areia
v 0.3000 0.7020 0.0000
v 0.9000 0.7020 0.0000
v 0.9000 0.7200 0.0000
v 0.3000 0.7200 0.0000
v 0.3000 0.7020 0.7200
v 0.9000 0.7020 0.7200
v 0.9000 0.7200 0.7200
v 0.3000 0.7200 0.7200
f 41 42 43 44
f 45 48 47 46
f 41 45 46 42
f 42 46 47 43
f 43 47 48 44
f 44 48 45 41
